<mxfile host="app.diagrams.net" modified="2021-03-16T08:58:39.915Z" agent="5.0 (Windows NT 10.0; Win64; x64) AppleWebKit/537.36 (KHTML, like Gecko) Chrome/89.0.4389.90 Safari/537.36 Edg/89.0.774.54" etag="Y4bwslKAtJtgn8ZWGxBj" version="14.4.8" type="github">
  <diagram id="UKU3DFRLvGe0n27m7Lsg" name="第 1 页">
    <mxGraphModel dx="1002" dy="683" grid="1" gridSize="10" guides="1" tooltips="1" connect="1" arrows="1" fold="1" page="1" pageScale="1" pageWidth="827" pageHeight="1169" math="0" shadow="0">
      <root>
        <mxCell id="0" />
        <mxCell id="1" parent="0" />
        <mxCell id="bVLz3vXDeYdqv_zzXwx2-1" value="" style="rounded=0;whiteSpace=wrap;html=1;" vertex="1" parent="1">
          <mxGeometry x="110" y="370" width="610" height="80" as="geometry" />
        </mxCell>
        <mxCell id="bVLz3vXDeYdqv_zzXwx2-2" value="" style="rounded=0;whiteSpace=wrap;html=1;" vertex="1" parent="1">
          <mxGeometry x="110" y="160" width="180" height="200" as="geometry" />
        </mxCell>
        <mxCell id="bVLz3vXDeYdqv_zzXwx2-3" value="" style="rounded=0;whiteSpace=wrap;html=1;" vertex="1" parent="1">
          <mxGeometry x="150" y="250" width="70" height="30" as="geometry" />
        </mxCell>
        <mxCell id="bVLz3vXDeYdqv_zzXwx2-4" value="" style="rounded=0;whiteSpace=wrap;html=1;" vertex="1" parent="1">
          <mxGeometry x="300" y="160" width="180" height="200" as="geometry" />
        </mxCell>
        <mxCell id="bVLz3vXDeYdqv_zzXwx2-5" value="" style="rounded=0;whiteSpace=wrap;html=1;" vertex="1" parent="1">
          <mxGeometry x="520" y="160" width="180" height="200" as="geometry" />
        </mxCell>
      </root>
    </mxGraphModel>
  </diagram>
</mxfile>
